<svg width="387" height="35" viewBox="0 0 387 35" fill="none" xmlns="http://www.w3.org/2000/svg">
<g filter="url(#filter0_d_1084_823)">
<path d="M8.86816 23.3379H22.2959V27H5.20605V9.91016H22.2959V13.5723H8.86816V16.624H22.2959V20.2861H8.86816V23.3379ZM23.5166 9.91016H27.1787V23.3379H40.6064V27H23.5166V9.91016ZM45.4893 23.3379H58.917V27H41.8271V9.91016H58.917V13.5723H45.4893V16.624H58.917V20.2861H45.4893V23.3379ZM63.7998 23.3379H77.2275V27H60.1377V9.91016H77.2275V13.5723H63.7998V23.3379ZM88.8242 13.5723V27H85.1621V13.5723H78.4482V9.91016H95.5381V13.5723H88.8242ZM107.892 18.4551L116.437 27H111.261L102.716 18.4551L107.599 13.5723H100.421V27H96.7588V9.91016H116.437L107.892 18.4551ZM116.705 18.4551L123.614 25.3643L130.523 18.4551L123.614 11.5459L116.705 18.4551ZM111.529 18.4551L123.614 6.37012L135.699 18.4551L123.614 30.54L111.529 18.4551ZM162.872 27H159.21V16.1602L154.327 21.043L149.444 16.1602V27H145.782V7.32227L154.327 15.8672L162.872 7.32227V27ZM165.729 18.4551L172.638 25.3643L179.547 18.4551L172.638 11.5459L165.729 18.4551ZM160.553 18.4551L172.638 6.37012L184.723 18.4551L172.638 30.54L160.553 18.4551ZM184.039 18.4551L190.948 25.3643L197.857 18.4551L190.948 11.5459L184.039 18.4551ZM178.863 18.4551L190.948 6.37012L203.033 18.4551L190.948 30.54L178.863 18.4551ZM211.847 9.91016L220.392 18.4551L211.847 27H200.714V9.91016H211.847ZM210.333 13.5723H204.376V23.3379H210.333L215.216 18.4551L210.333 13.5723ZM219.024 27V23.3379H232.452V20.2861H219.024V9.91016H236.114V13.5723H222.687V16.624H236.114V27H219.024ZM266.827 9.91016V13.5723H253.399V16.624H266.827V20.2861H253.399V27H249.737V9.91016H266.827ZM271.71 23.3379H285.138V27H268.048V9.91016H285.138V13.5723H271.71V16.624H285.138V20.2861H271.71V23.3379ZM286.358 27V23.3379H299.786V20.2861H286.358V9.91016H303.448V13.5723H290.021V16.624H303.448V27H286.358ZM315.045 13.5723V27H311.383V13.5723H304.669V9.91016H321.759V13.5723H315.045ZM326.642 9.91016V27H322.979V9.91016H326.642ZM341.29 19.5293V9.91016H344.952V21.043L336.407 29.5879L327.862 21.043V9.91016H331.524V19.5293L336.407 24.4121L341.29 19.5293ZM346.173 9.91016H363.263V27H359.601V20.2861H349.835V27H346.173V9.91016ZM349.835 13.5723V16.624H359.601V13.5723H349.835ZM364.483 9.91016H368.146V23.3379H381.573V27H364.483V9.91016Z" fill="white"/>
<path d="M8.86816 23.3379H7.86816V24.3379H8.86816V23.3379ZM22.2959 23.3379H23.2959V22.3379H22.2959V23.3379ZM22.2959 27V28H23.2959V27H22.2959ZM5.20605 27H4.20605V28H5.20605V27ZM5.20605 9.91016V8.91016H4.20605V9.91016H5.20605ZM22.2959 9.91016H23.2959V8.91016H22.2959V9.91016ZM22.2959 13.5723V14.5723H23.2959V13.5723H22.2959ZM8.86816 13.5723V12.5723H7.86816V13.5723H8.86816ZM8.86816 16.624H7.86816V17.624H8.86816V16.624ZM22.2959 16.624H23.2959V15.624H22.2959V16.624ZM22.2959 20.2861V21.2861H23.2959V20.2861H22.2959ZM8.86816 20.2861V19.2861H7.86816V20.2861H8.86816ZM8.86816 24.3379H22.2959V22.3379H8.86816V24.3379ZM21.2959 23.3379V27H23.2959V23.3379H21.2959ZM22.2959 26H5.20605V28H22.2959V26ZM6.20605 27V9.91016H4.20605V27H6.20605ZM5.20605 10.9102H22.2959V8.91016H5.20605V10.9102ZM21.2959 9.91016V13.5723H23.2959V9.91016H21.2959ZM22.2959 12.5723H8.86816V14.5723H22.2959V12.5723ZM7.86816 13.5723V16.624H9.86816V13.5723H7.86816ZM8.86816 17.624H22.2959V15.624H8.86816V17.624ZM21.2959 16.624V20.2861H23.2959V16.624H21.2959ZM22.2959 19.2861H8.86816V21.2861H22.2959V19.2861ZM7.86816 20.2861V23.3379H9.86816V20.2861H7.86816ZM23.5166 9.91016V8.91016H22.5166V9.91016H23.5166ZM27.1787 9.91016H28.1787V8.91016H27.1787V9.91016ZM27.1787 23.3379H26.1787V24.3379H27.1787V23.3379ZM40.6064 23.3379H41.6064V22.3379H40.6064V23.3379ZM40.6064 27V28H41.6064V27H40.6064ZM23.5166 27H22.5166V28H23.5166V27ZM23.5166 10.9102H27.1787V8.91016H23.5166V10.9102ZM26.1787 9.91016V23.3379H28.1787V9.91016H26.1787ZM27.1787 24.3379H40.6064V22.3379H27.1787V24.3379ZM39.6064 23.3379V27H41.6064V23.3379H39.6064ZM40.6064 26H23.5166V28H40.6064V26ZM24.5166 27V9.91016H22.5166V27H24.5166ZM45.4893 23.3379H44.4893V24.3379H45.4893V23.3379ZM58.917 23.3379H59.917V22.3379H58.917V23.3379ZM58.917 27V28H59.917V27H58.917ZM41.8271 27H40.8271V28H41.8271V27ZM41.8271 9.91016V8.91016H40.8271V9.91016H41.8271ZM58.917 9.91016H59.917V8.91016H58.917V9.91016ZM58.917 13.5723V14.5723H59.917V13.5723H58.917ZM45.4893 13.5723V12.5723H44.4893V13.5723H45.4893ZM45.4893 16.624H44.4893V17.624H45.4893V16.624ZM58.917 16.624H59.917V15.624H58.917V16.624ZM58.917 20.2861V21.2861H59.917V20.2861H58.917ZM45.4893 20.2861V19.2861H44.4893V20.2861H45.4893ZM45.4893 24.3379H58.917V22.3379H45.4893V24.3379ZM57.917 23.3379V27H59.917V23.3379H57.917ZM58.917 26H41.8271V28H58.917V26ZM42.8271 27V9.91016H40.8271V27H42.8271ZM41.8271 10.9102H58.917V8.91016H41.8271V10.9102ZM57.917 9.91016V13.5723H59.917V9.91016H57.917ZM58.917 12.5723H45.4893V14.5723H58.917V12.5723ZM44.4893 13.5723V16.624H46.4893V13.5723H44.4893ZM45.4893 17.624H58.917V15.624H45.4893V17.624ZM57.917 16.624V20.2861H59.917V16.624H57.917ZM58.917 19.2861H45.4893V21.2861H58.917V19.2861ZM44.4893 20.2861V23.3379H46.4893V20.2861H44.4893ZM63.7998 23.3379H62.7998V24.3379H63.7998V23.3379ZM77.2275 23.3379H78.2275V22.3379H77.2275V23.3379ZM77.2275 27V28H78.2275V27H77.2275ZM60.1377 27H59.1377V28H60.1377V27ZM60.1377 9.91016V8.91016H59.1377V9.91016H60.1377ZM77.2275 9.91016H78.2275V8.91016H77.2275V9.91016ZM77.2275 13.5723V14.5723H78.2275V13.5723H77.2275ZM63.7998 13.5723V12.5723H62.7998V13.5723H63.7998ZM63.7998 24.3379H77.2275V22.3379H63.7998V24.3379ZM76.2275 23.3379V27H78.2275V23.3379H76.2275ZM77.2275 26H60.1377V28H77.2275V26ZM61.1377 27V9.91016H59.1377V27H61.1377ZM60.1377 10.9102H77.2275V8.91016H60.1377V10.9102ZM76.2275 9.91016V13.5723H78.2275V9.91016H76.2275ZM77.2275 12.5723H63.7998V14.5723H77.2275V12.5723ZM62.7998 13.5723V23.3379H64.7998V13.5723H62.7998ZM88.8242 13.5723V12.5723H87.8242V13.5723H88.8242ZM88.8242 27V28H89.8242V27H88.8242ZM85.1621 27H84.1621V28H85.1621V27ZM85.1621 13.5723H86.1621V12.5723H85.1621V13.5723ZM78.4482 13.5723H77.4482V14.5723H78.4482V13.5723ZM78.4482 9.91016V8.91016H77.4482V9.91016H78.4482ZM95.5381 9.91016H96.5381V8.91016H95.5381V9.91016ZM95.5381 13.5723V14.5723H96.5381V13.5723H95.5381ZM87.8242 13.5723V27H89.8242V13.5723H87.8242ZM88.8242 26H85.1621V28H88.8242V26ZM86.1621 27V13.5723H84.1621V27H86.1621ZM85.1621 12.5723H78.4482V14.5723H85.1621V12.5723ZM79.4482 13.5723V9.91016H77.4482V13.5723H79.4482ZM78.4482 10.9102H95.5381V8.91016H78.4482V10.9102ZM94.5381 9.91016V13.5723H96.5381V9.91016H94.5381ZM95.5381 12.5723H88.8242V14.5723H95.5381V12.5723ZM107.892 18.4551L107.184 17.748L106.477 18.4551L107.184 19.1622L107.892 18.4551ZM116.437 27V28H118.851L117.144 26.2929L116.437 27ZM111.261 27L110.554 27.7071L110.847 28H111.261V27ZM102.716 18.4551L102.009 17.748L101.302 18.4551L102.009 19.1622L102.716 18.4551ZM107.599 13.5723L108.306 14.2794L110.013 12.5723H107.599V13.5723ZM100.421 13.5723V12.5723H99.4209V13.5723H100.421ZM100.421 27V28H101.421V27H100.421ZM96.7588 27H95.7588V28H96.7588V27ZM96.7588 9.91016V8.91016H95.7588V9.91016H96.7588ZM116.437 9.91016L117.144 10.6173L118.851 8.91016H116.437V9.91016ZM107.184 19.1622L115.729 27.7071L117.144 26.2929L108.599 17.748L107.184 19.1622ZM116.437 26H111.261V28H116.437V26ZM111.968 26.2929L103.423 17.748L102.009 19.1622L110.554 27.7071L111.968 26.2929ZM103.423 19.1622L108.306 14.2794L106.892 12.8652L102.009 17.748L103.423 19.1622ZM107.599 12.5723H100.421V14.5723H107.599V12.5723ZM99.4209 13.5723V27H101.421V13.5723H99.4209ZM100.421 26H96.7588V28H100.421V26ZM97.7588 27V9.91016H95.7588V27H97.7588ZM96.7588 10.9102H116.437V8.91016H96.7588V10.9102ZM115.729 9.20305L107.184 17.748L108.599 19.1622L117.144 10.6173L115.729 9.20305ZM116.705 18.4551L115.998 17.748L115.291 18.4551L115.998 19.1622L116.705 18.4551ZM123.614 25.3643L122.907 26.0714L123.614 26.7785L124.321 26.0714L123.614 25.3643ZM130.523 18.4551L131.231 19.1622L131.938 18.4551L131.231 17.748L130.523 18.4551ZM123.614 11.5459L124.321 10.8388L123.614 10.1317L122.907 10.8388L123.614 11.5459ZM111.529 18.4551L110.822 17.748L110.115 18.4551L110.822 19.1622L111.529 18.4551ZM123.614 6.37012L124.321 5.66301L123.614 4.9559L122.907 5.66301L123.614 6.37012ZM135.699 18.4551L136.406 19.1622L137.113 18.4551L136.406 17.748L135.699 18.4551ZM123.614 30.54L122.907 31.2471L123.614 31.9543L124.321 31.2471L123.614 30.54ZM115.998 19.1622L122.907 26.0714L124.321 24.6572L117.412 17.748L115.998 19.1622ZM124.321 26.0714L131.231 19.1622L129.816 17.748L122.907 24.6572L124.321 26.0714ZM131.231 17.748L124.321 10.8388L122.907 12.253L129.816 19.1622L131.231 17.748ZM122.907 10.8388L115.998 17.748L117.412 19.1622L124.321 12.253L122.907 10.8388ZM112.236 19.1622L124.321 7.07722L122.907 5.66301L110.822 17.748L112.236 19.1622ZM122.907 7.07722L134.992 19.1622L136.406 17.748L124.321 5.66301L122.907 7.07722ZM134.992 17.748L122.907 29.8329L124.321 31.2471L136.406 19.1622L134.992 17.748ZM124.321 29.8329L112.236 17.748L110.822 19.1622L122.907 31.2471L124.321 29.8329ZM162.872 27V28H163.872V27H162.872ZM159.21 27H158.21V28H159.21V27ZM159.21 16.1602H160.21V13.7459L158.503 15.453L159.21 16.1602ZM154.327 21.043L153.62 21.7501L154.327 22.4572L155.034 21.7501L154.327 21.043ZM149.444 16.1602L150.151 15.453L148.444 13.7459V16.1602H149.444ZM149.444 27V28H150.444V27H149.444ZM145.782 27H144.782V28H145.782V27ZM145.782 7.32227L146.489 6.61516L144.782 4.90805V7.32227H145.782ZM154.327 15.8672L153.62 16.5743L154.327 17.2814L155.034 16.5743L154.327 15.8672ZM162.872 7.32227H163.872V4.90805L162.165 6.61516L162.872 7.32227ZM162.872 26H159.21V28H162.872V26ZM160.21 27V16.1602H158.21V27H160.21ZM158.503 15.453L153.62 20.3359L155.034 21.7501L159.917 16.8673L158.503 15.453ZM155.034 20.3359L150.151 15.453L148.737 16.8673L153.62 21.7501L155.034 20.3359ZM148.444 16.1602V27H150.444V16.1602H148.444ZM149.444 26H145.782V28H149.444V26ZM146.782 27V7.32227H144.782V27H146.782ZM145.075 8.02937L153.62 16.5743L155.034 15.1601L146.489 6.61516L145.075 8.02937ZM155.034 16.5743L163.579 8.02937L162.165 6.61516L153.62 15.1601L155.034 16.5743ZM161.872 7.32227V27H163.872V7.32227H161.872ZM165.729 18.4551L165.021 17.748L164.314 18.4551L165.021 19.1622L165.729 18.4551ZM172.638 25.3643L171.931 26.0714L172.638 26.7785L173.345 26.0714L172.638 25.3643ZM179.547 18.4551L180.254 19.1622L180.961 18.4551L180.254 17.748L179.547 18.4551ZM172.638 11.5459L173.345 10.8388L172.638 10.1317L171.931 10.8388L172.638 11.5459ZM160.553 18.4551L159.846 17.748L159.139 18.4551L159.846 19.1622L160.553 18.4551ZM172.638 6.37012L173.345 5.66301L172.638 4.9559L171.931 5.66301L172.638 6.37012ZM184.723 18.4551L185.43 19.1622L186.137 18.4551L185.43 17.748L184.723 18.4551ZM172.638 30.54L171.931 31.2471L172.638 31.9543L173.345 31.2471L172.638 30.54ZM165.021 19.1622L171.931 26.0714L173.345 24.6572L166.436 17.748L165.021 19.1622ZM173.345 26.0714L180.254 19.1622L178.84 17.748L171.931 24.6572L173.345 26.0714ZM180.254 17.748L173.345 10.8388L171.931 12.253L178.84 19.1622L180.254 17.748ZM171.931 10.8388L165.021 17.748L166.436 19.1622L173.345 12.253L171.931 10.8388ZM161.26 19.1622L173.345 7.07722L171.931 5.66301L159.846 17.748L161.26 19.1622ZM171.931 7.07722L184.016 19.1622L185.43 17.748L173.345 5.66301L171.931 7.07722ZM184.016 17.748L171.931 29.8329L173.345 31.2471L185.43 19.1622L184.016 17.748ZM173.345 29.8329L161.26 17.748L159.846 19.1622L171.931 31.2471L173.345 29.8329ZM184.039 18.4551L183.332 17.748L182.625 18.4551L183.332 19.1622L184.039 18.4551ZM190.948 25.3643L190.241 26.0714L190.948 26.7785L191.655 26.0714L190.948 25.3643ZM197.857 18.4551L198.565 19.1622L199.272 18.4551L198.565 17.748L197.857 18.4551ZM190.948 11.5459L191.655 10.8388L190.948 10.1317L190.241 10.8388L190.948 11.5459ZM178.863 18.4551L178.156 17.748L177.449 18.4551L178.156 19.1622L178.863 18.4551ZM190.948 6.37012L191.655 5.66301L190.948 4.9559L190.241 5.66301L190.948 6.37012ZM203.033 18.4551L203.74 19.1622L204.447 18.4551L203.74 17.748L203.033 18.4551ZM190.948 30.54L190.241 31.2471L190.948 31.9543L191.655 31.2471L190.948 30.54ZM183.332 19.1622L190.241 26.0714L191.655 24.6572L184.746 17.748L183.332 19.1622ZM191.655 26.0714L198.565 19.1622L197.15 17.748L190.241 24.6572L191.655 26.0714ZM198.565 17.748L191.655 10.8388L190.241 12.253L197.15 19.1622L198.565 17.748ZM190.241 10.8388L183.332 17.748L184.746 19.1622L191.655 12.253L190.241 10.8388ZM179.57 19.1622L191.655 7.07722L190.241 5.66301L178.156 17.748L179.57 19.1622ZM190.241 7.07722L202.326 19.1622L203.74 17.748L191.655 5.66301L190.241 7.07722ZM202.326 17.748L190.241 29.8329L191.655 31.2471L203.74 19.1622L202.326 17.748ZM191.655 29.8329L179.57 17.748L178.156 19.1622L190.241 31.2471L191.655 29.8329ZM211.847 9.91016L212.554 9.20305L212.261 8.91016H211.847V9.91016ZM220.392 18.4551L221.099 19.1622L221.806 18.4551L221.099 17.748L220.392 18.4551ZM211.847 27V28H212.261L212.554 27.7071L211.847 27ZM200.714 27H199.714V28H200.714V27ZM200.714 9.91016V8.91016H199.714V9.91016H200.714ZM210.333 13.5723L211.04 12.8652L210.747 12.5723H210.333V13.5723ZM204.376 13.5723V12.5723H203.376V13.5723H204.376ZM204.376 23.3379H203.376V24.3379H204.376V23.3379ZM210.333 23.3379V24.3379H210.747L211.04 24.045L210.333 23.3379ZM215.216 18.4551L215.923 19.1622L216.63 18.4551L215.923 17.748L215.216 18.4551ZM211.14 10.6173L219.684 19.1622L221.099 17.748L212.554 9.20305L211.14 10.6173ZM219.684 17.748L211.14 26.2929L212.554 27.7071L221.099 19.1622L219.684 17.748ZM211.847 26H200.714V28H211.847V26ZM201.714 27V9.91016H199.714V27H201.714ZM200.714 10.9102H211.847V8.91016H200.714V10.9102ZM210.333 12.5723H204.376V14.5723H210.333V12.5723ZM203.376 13.5723V23.3379H205.376V13.5723H203.376ZM204.376 24.3379H210.333V22.3379H204.376V24.3379ZM211.04 24.045L215.923 19.1622L214.509 17.748L209.626 22.6308L211.04 24.045ZM215.923 17.748L211.04 12.8652L209.626 14.2794L214.509 19.1622L215.923 17.748ZM219.024 27H218.024V28H219.024V27ZM219.024 23.3379V22.3379H218.024V23.3379H219.024ZM232.452 23.3379V24.3379H233.452V23.3379H232.452ZM232.452 20.2861H233.452V19.2861H232.452V20.2861ZM219.024 20.2861H218.024V21.2861H219.024V20.2861ZM219.024 9.91016V8.91016H218.024V9.91016H219.024ZM236.114 9.91016H237.114V8.91016H236.114V9.91016ZM236.114 13.5723V14.5723H237.114V13.5723H236.114ZM222.687 13.5723V12.5723H221.687V13.5723H222.687ZM222.687 16.624H221.687V17.624H222.687V16.624ZM236.114 16.624H237.114V15.624H236.114V16.624ZM236.114 27V28H237.114V27H236.114ZM220.024 27V23.3379H218.024V27H220.024ZM219.024 24.3379H232.452V22.3379H219.024V24.3379ZM233.452 23.3379V20.2861H231.452V23.3379H233.452ZM232.452 19.2861H219.024V21.2861H232.452V19.2861ZM220.024 20.2861V9.91016H218.024V20.2861H220.024ZM219.024 10.9102H236.114V8.91016H219.024V10.9102ZM235.114 9.91016V13.5723H237.114V9.91016H235.114ZM236.114 12.5723H222.687V14.5723H236.114V12.5723ZM221.687 13.5723V16.624H223.687V13.5723H221.687ZM222.687 17.624H236.114V15.624H222.687V17.624ZM235.114 16.624V27H237.114V16.624H235.114ZM236.114 26H219.024V28H236.114V26ZM266.827 9.91016H267.827V8.91016H266.827V9.91016ZM266.827 13.5723V14.5723H267.827V13.5723H266.827ZM253.399 13.5723V12.5723H252.399V13.5723H253.399ZM253.399 16.624H252.399V17.624H253.399V16.624ZM266.827 16.624H267.827V15.624H266.827V16.624ZM266.827 20.2861V21.2861H267.827V20.2861H266.827ZM253.399 20.2861V19.2861H252.399V20.2861H253.399ZM253.399 27V28H254.399V27H253.399ZM249.737 27H248.737V28H249.737V27ZM249.737 9.91016V8.91016H248.737V9.91016H249.737ZM265.827 9.91016V13.5723H267.827V9.91016H265.827ZM266.827 12.5723H253.399V14.5723H266.827V12.5723ZM252.399 13.5723V16.624H254.399V13.5723H252.399ZM253.399 17.624H266.827V15.624H253.399V17.624ZM265.827 16.624V20.2861H267.827V16.624H265.827ZM266.827 19.2861H253.399V21.2861H266.827V19.2861ZM252.399 20.2861V27H254.399V20.2861H252.399ZM253.399 26H249.737V28H253.399V26ZM250.737 27V9.91016H248.737V27H250.737ZM249.737 10.9102H266.827V8.91016H249.737V10.9102ZM271.71 23.3379H270.71V24.3379H271.71V23.3379ZM285.138 23.3379H286.138V22.3379H285.138V23.3379ZM285.138 27V28H286.138V27H285.138ZM268.048 27H267.048V28H268.048V27ZM268.048 9.91016V8.91016H267.048V9.91016H268.048ZM285.138 9.91016H286.138V8.91016H285.138V9.91016ZM285.138 13.5723V14.5723H286.138V13.5723H285.138ZM271.71 13.5723V12.5723H270.71V13.5723H271.71ZM271.71 16.624H270.71V17.624H271.71V16.624ZM285.138 16.624H286.138V15.624H285.138V16.624ZM285.138 20.2861V21.2861H286.138V20.2861H285.138ZM271.71 20.2861V19.2861H270.71V20.2861H271.71ZM271.71 24.3379H285.138V22.3379H271.71V24.3379ZM284.138 23.3379V27H286.138V23.3379H284.138ZM285.138 26H268.048V28H285.138V26ZM269.048 27V9.91016H267.048V27H269.048ZM268.048 10.9102H285.138V8.91016H268.048V10.9102ZM284.138 9.91016V13.5723H286.138V9.91016H284.138ZM285.138 12.5723H271.71V14.5723H285.138V12.5723ZM270.71 13.5723V16.624H272.71V13.5723H270.71ZM271.71 17.624H285.138V15.624H271.71V17.624ZM284.138 16.624V20.2861H286.138V16.624H284.138ZM285.138 19.2861H271.71V21.2861H285.138V19.2861ZM270.71 20.2861V23.3379H272.71V20.2861H270.71ZM286.358 27H285.358V28H286.358V27ZM286.358 23.3379V22.3379H285.358V23.3379H286.358ZM299.786 23.3379V24.3379H300.786V23.3379H299.786ZM299.786 20.2861H300.786V19.2861H299.786V20.2861ZM286.358 20.2861H285.358V21.2861H286.358V20.2861ZM286.358 9.91016V8.91016H285.358V9.91016H286.358ZM303.448 9.91016H304.448V8.91016H303.448V9.91016ZM303.448 13.5723V14.5723H304.448V13.5723H303.448ZM290.021 13.5723V12.5723H289.021V13.5723H290.021ZM290.021 16.624H289.021V17.624H290.021V16.624ZM303.448 16.624H304.448V15.624H303.448V16.624ZM303.448 27V28H304.448V27H303.448ZM287.358 27V23.3379H285.358V27H287.358ZM286.358 24.3379H299.786V22.3379H286.358V24.3379ZM300.786 23.3379V20.2861H298.786V23.3379H300.786ZM299.786 19.2861H286.358V21.2861H299.786V19.2861ZM287.358 20.2861V9.91016H285.358V20.2861H287.358ZM286.358 10.9102H303.448V8.91016H286.358V10.9102ZM302.448 9.91016V13.5723H304.448V9.91016H302.448ZM303.448 12.5723H290.021V14.5723H303.448V12.5723ZM289.021 13.5723V16.624H291.021V13.5723H289.021ZM290.021 17.624H303.448V15.624H290.021V17.624ZM302.448 16.624V27H304.448V16.624H302.448ZM303.448 26H286.358V28H303.448V26ZM315.045 13.5723V12.5723H314.045V13.5723H315.045ZM315.045 27V28H316.045V27H315.045ZM311.383 27H310.383V28H311.383V27ZM311.383 13.5723H312.383V12.5723H311.383V13.5723ZM304.669 13.5723H303.669V14.5723H304.669V13.5723ZM304.669 9.91016V8.91016H303.669V9.91016H304.669ZM321.759 9.91016H322.759V8.91016H321.759V9.91016ZM321.759 13.5723V14.5723H322.759V13.5723H321.759ZM314.045 13.5723V27H316.045V13.5723H314.045ZM315.045 26H311.383V28H315.045V26ZM312.383 27V13.5723H310.383V27H312.383ZM311.383 12.5723H304.669V14.5723H311.383V12.5723ZM305.669 13.5723V9.91016H303.669V13.5723H305.669ZM304.669 10.9102H321.759V8.91016H304.669V10.9102ZM320.759 9.91016V13.5723H322.759V9.91016H320.759ZM321.759 12.5723H315.045V14.5723H321.759V12.5723ZM326.642 9.91016H327.642V8.91016H326.642V9.91016ZM326.642 27V28H327.642V27H326.642ZM322.979 27H321.979V28H322.979V27ZM322.979 9.91016V8.91016H321.979V9.91016H322.979ZM325.642 9.91016V27H327.642V9.91016H325.642ZM326.642 26H322.979V28H326.642V26ZM323.979 27V9.91016H321.979V27H323.979ZM322.979 10.9102H326.642V8.91016H322.979V10.9102ZM341.29 19.5293L341.997 20.2364L342.29 19.9435V19.5293H341.29ZM341.29 9.91016V8.91016H340.29V9.91016H341.29ZM344.952 9.91016H345.952V8.91016H344.952V9.91016ZM344.952 21.043L345.659 21.7501L345.952 21.4572V21.043H344.952ZM336.407 29.5879L335.7 30.295L336.407 31.0021L337.114 30.295L336.407 29.5879ZM327.862 21.043H326.862V21.4572L327.155 21.7501L327.862 21.043ZM327.862 9.91016V8.91016H326.862V9.91016H327.862ZM331.524 9.91016H332.524V8.91016H331.524V9.91016ZM331.524 19.5293H330.524V19.9435L330.817 20.2364L331.524 19.5293ZM336.407 24.4121L335.7 25.1192L336.407 25.8263L337.114 25.1192L336.407 24.4121ZM342.29 19.5293V9.91016H340.29V19.5293H342.29ZM341.29 10.9102H344.952V8.91016H341.29V10.9102ZM343.952 9.91016V21.043H345.952V9.91016H343.952ZM344.245 20.3359L335.7 28.8808L337.114 30.295L345.659 21.7501L344.245 20.3359ZM337.114 28.8808L328.569 20.3359L327.155 21.7501L335.7 30.295L337.114 28.8808ZM328.862 21.043V9.91016H326.862V21.043H328.862ZM327.862 10.9102H331.524V8.91016H327.862V10.9102ZM330.524 9.91016V19.5293H332.524V9.91016H330.524ZM330.817 20.2364L335.7 25.1192L337.114 23.705L332.232 18.8222L330.817 20.2364ZM337.114 25.1192L341.997 20.2364L340.583 18.8222L335.7 23.705L337.114 25.1192ZM346.173 9.91016V8.91016H345.173V9.91016H346.173ZM363.263 9.91016H364.263V8.91016H363.263V9.91016ZM363.263 27V28H364.263V27H363.263ZM359.601 27H358.601V28H359.601V27ZM359.601 20.2861H360.601V19.2861H359.601V20.2861ZM349.835 20.2861V19.2861H348.835V20.2861H349.835ZM349.835 27V28H350.835V27H349.835ZM346.173 27H345.173V28H346.173V27ZM349.835 13.5723V12.5723H348.835V13.5723H349.835ZM349.835 16.624H348.835V17.624H349.835V16.624ZM359.601 16.624V17.624H360.601V16.624H359.601ZM359.601 13.5723H360.601V12.5723H359.601V13.5723ZM346.173 10.9102H363.263V8.91016H346.173V10.9102ZM362.263 9.91016V27H364.263V9.91016H362.263ZM363.263 26H359.601V28H363.263V26ZM360.601 27V20.2861H358.601V27H360.601ZM359.601 19.2861H349.835V21.2861H359.601V19.2861ZM348.835 20.2861V27H350.835V20.2861H348.835ZM349.835 26H346.173V28H349.835V26ZM347.173 27V9.91016H345.173V27H347.173ZM348.835 13.5723V16.624H350.835V13.5723H348.835ZM349.835 17.624H359.601V15.624H349.835V17.624ZM360.601 16.624V13.5723H358.601V16.624H360.601ZM359.601 12.5723H349.835V14.5723H359.601V12.5723ZM364.483 9.91016V8.91016H363.483V9.91016H364.483ZM368.146 9.91016H369.146V8.91016H368.146V9.91016ZM368.146 23.3379H367.146V24.3379H368.146V23.3379ZM381.573 23.3379H382.573V22.3379H381.573V23.3379ZM381.573 27V28H382.573V27H381.573ZM364.483 27H363.483V28H364.483V27ZM364.483 10.9102H368.146V8.91016H364.483V10.9102ZM367.146 9.91016V23.3379H369.146V9.91016H367.146ZM368.146 24.3379H381.573V22.3379H368.146V24.3379ZM380.573 23.3379V27H382.573V23.3379H380.573ZM381.573 26H364.483V28H381.573V26ZM365.483 27V9.91016H363.483V27H365.483Z" fill="#36A9E1"/>
</g>
<defs>
<filter id="filter0_d_1084_823" x="0.206055" y="0.370117" width="386.367" height="34.1699" filterUnits="userSpaceOnUse" color-interpolation-filters="sRGB">
<feFlood flood-opacity="0" result="BackgroundImageFix"/>
<feColorMatrix in="SourceAlpha" type="matrix" values="0 0 0 0 0 0 0 0 0 0 0 0 0 0 0 0 0 0 127 0" result="hardAlpha"/>
<feOffset dy="-1"/>
<feGaussianBlur stdDeviation="2.5"/>
<feComposite in2="hardAlpha" operator="out"/>
<feColorMatrix type="matrix" values="0 0 0 0 0.211765 0 0 0 0 0.662745 0 0 0 0 0.882353 0 0 0 1 0"/>
<feBlend mode="normal" in2="BackgroundImageFix" result="effect1_dropShadow_1084_823"/>
<feBlend mode="normal" in="SourceGraphic" in2="effect1_dropShadow_1084_823" result="shape"/>
</filter>
</defs>
</svg>
